<svg xmlns="http://www.w3.org/2000/svg" width="30" height="30" viewBox="0 0 30 30">
    <g id="icon-linkedin" transform="translate(4185 -7403)">
        <path id="Path_46992" data-name="Path 46992" d="M15,0A15,15,0,1,1,0,15,15,15,0,0,1,15,0Z"
              transform="translate(-4185 7403)" fill="#fff" opacity="0"/>
        <path id="icons8-linkedin-2-480"
              d="M6.07,9.346h.024a2.061,2.061,0,0,0,2.12-2.173A2.054,2.054,0,0,0,6.119,5,2.06,2.06,0,0,0,4,7.173,2.049,2.049,0,0,0,6.07,9.346ZM4,10.794H8.214V23.349H4Zm18.73,4.587a4.519,4.519,0,0,0-4.448-4.587,4.391,4.391,0,0,0-3.512,1.779V10.794H10.555V23.349H14.77V16.106h0a1.874,1.874,0,1,1,3.746,0v7.243H22.73Z"
              transform="translate(-4183.365 7403.826)" fill="#0288d1"/>
    </g>
</svg>
