<svg xmlns="http://www.w3.org/2000/svg" width="30" height="30" viewBox="0 0 30 30">
    <g id="icon-google" transform="translate(4185 -7336)">
        <circle id="Ellipse_235" data-name="Ellipse 235" cx="15" cy="15" r="15" transform="translate(-4185 7336)"
                fill="#fff" opacity="0"/>
        <g id="icons8-google-480" transform="translate(-4180.332 7340.668)">
            <path id="Path_46986" data-name="Path 46986"
                  d="M24.462,12.308h-.832v-.043h-9.3V16.4H20.17a6.2,6.2,0,1,1-1.726-6.7L21.366,6.78a10.321,10.321,0,1,0,3.3,7.551A10.4,10.4,0,0,0,24.462,12.308Z"
                  transform="translate(-4 -4)" fill="#ffc107"/>
            <path id="Path_46987" data-name="Path 46987"
                  d="M6.306,9.523,9.7,12.012A6.186,6.186,0,0,1,19.558,9.7L22.481,6.78A10.311,10.311,0,0,0,6.306,9.523Z"
                  transform="translate(-5.115 -4)" fill="#ff3d00"/>
            <path id="Path_46988" data-name="Path 46988"
                  d="M15.392,36.291a10.283,10.283,0,0,0,6.927-2.682l-3.2-2.706a6.183,6.183,0,0,1-9.557-2.849L6.2,30.65A10.323,10.323,0,0,0,15.392,36.291Z"
                  transform="translate(-5.061 -15.629)" fill="#4caf50"/>
            <path id="Path_46989" data-name="Path 46989"
                  d="M34.13,20.043H33.3V20H24v4.132h5.839a6.219,6.219,0,0,1-2.111,2.878h0l3.2,2.706a9.994,9.994,0,0,0,3.4-7.649A10.4,10.4,0,0,0,34.13,20.043Z"
                  transform="translate(-13.669 -11.735)" fill="#1976d2"/>
        </g>
    </g>
</svg>
