<svg id="logo-mymexatlantic" xmlns="http://www.w3.org/2000/svg" xmlns:xlink="http://www.w3.org/1999/xlink"
     width="320.164" height="74.228" viewBox="0 0 320.164 74.228">
    <defs>
        <linearGradient id="linear-gradient" x1="0.403" x2="1" y2="1" gradientUnits="objectBoundingBox">
            <stop offset="0" stop-color="#a0762f"/>
            <stop offset="0.16" stop-color="#fdc778"/>
            <stop offset="0.51" stop-color="#ebcb88"/>
            <stop offset="0.85" stop-color="#bb914a"/>
            <stop offset="1" stop-color="#a0762f"/>
        </linearGradient>
        <linearGradient id="linear-gradient-2" x1="0.266" x2="1" y2="1" xlink:href="#linear-gradient"/>
        <linearGradient id="linear-gradient-3" x1="0.177" x2="1" y2="1" xlink:href="#linear-gradient"/>
        <linearGradient id="linear-gradient-4" x1="0.113" x2="1" y2="1" xlink:href="#linear-gradient"/>
        <linearGradient id="linear-gradient-5" x1="0" x2="1" y2="1" xlink:href="#linear-gradient"/>
        <linearGradient id="linear-gradient-6" x1="0.141" x2="1" y2="1" xlink:href="#linear-gradient"/>
        <linearGradient id="linear-gradient-7" x1="0" x2="1.235" y2="0.944" xlink:href="#linear-gradient"/>
        <linearGradient id="linear-gradient-8" x1="0.204" y1="0.106" x2="1" y2="1" xlink:href="#linear-gradient"/>
        <linearGradient id="linear-gradient-9" x1="1" y1="1" x2="0.039" y2="0" xlink:href="#linear-gradient"/>
        <linearGradient id="linear-gradient-10" x1="0.585" y1="1" x2="0.063" y2="0.044" xlink:href="#linear-gradient"/>
        <linearGradient id="linear-gradient-11" x1="0.5" x2="0.5" y2="1" gradientUnits="objectBoundingBox">
            <stop offset="0" stop-color="#bb914a" stop-opacity="0"/>
            <stop offset="0.498" stop-color="#bb914a"/>
            <stop offset="1" stop-color="#bb914a" stop-opacity="0"/>
        </linearGradient>
        <linearGradient id="linear-gradient-12" x1="0.12" y1="0.095" x2="1" y2="1" gradientUnits="objectBoundingBox">
            <stop offset="0" stop-color="#a0762f"/>
            <stop offset="0.2" stop-color="#fdc778"/>
            <stop offset="0.5" stop-color="#ebcb88"/>
            <stop offset="0.8" stop-color="#bb914a"/>
            <stop offset="1" stop-color="#a0762f"/>
        </linearGradient>
        <linearGradient id="linear-gradient-13" x1="0" y1="0" x2="1" y2="1" xlink:href="#linear-gradient-12"/>
    </defs>
    <path id="Path_23782" data-name="Path 23782"
          d="M611.93,140l11.517,27.027h-6.324l-2.483-6.448H602.882l-2.407,6.438H594.5L605.906,140Zm-7.186,15.77H612.8l-4.09-10.4Z"
          transform="translate(-418.713 -119.978)" fill="url(#linear-gradient)"/>
    <path id="Path_23783" data-name="Path 23783"
          d="M684.968,147.186V140h5.226v7.186h5.533v3.952H690.2v8.019q-.039,2.969,1.356,3.462a11.964,11.964,0,0,0,3.838.49h.327v3.92h-4.769a5.75,5.75,0,0,1-4.478-1.656,6.463,6.463,0,0,1-1.506-4.517v-9.727H681.28v-3.943Z"
          transform="translate(-477.147 -119.978)" fill="url(#linear-gradient-2)"/>
    <path id="Path_23784" data-name="Path 23784" d="M734.75,167.013V140h5.458v27.013Z"
          transform="translate(-513.152 -119.978)" fill="url(#linear-gradient-3)"/>
    <path id="Path_23785" data-name="Path 23785"
          d="M774.438,162a13.285,13.285,0,0,1,3.332.4,6.373,6.373,0,0,1,2.878,1.633,5.78,5.78,0,0,1,1.539,2.479,10.116,10.116,0,0,1,.435,2.94v12.38H768.542a6.182,6.182,0,0,1-4.668-1.676,5.868,5.868,0,0,1-1.47-4.648c.15-2.384,1.052-3.858,2.522-4.632a11.551,11.551,0,0,1,5.383-1.091H777.2c.075-1.633-.389-2.571-1.261-3.048a7.425,7.425,0,0,0-3.482-.653h-8.744V162Zm2.786,15.845v-4.112h-6.471a4.344,4.344,0,0,0-1.96.4,1.777,1.777,0,0,0-.941,1.676,1.579,1.579,0,0,0,.941,1.731,4.8,4.8,0,0,0,1.885.3Z"
          transform="translate(-531.761 -134.791)" fill="url(#linear-gradient-4)"/>
    <path id="Path_23786" data-name="Path 23786"
          d="M848.232,162a10.836,10.836,0,0,1,6.1,1.542q2.179,1.5,2.182,5.759v12.527h-5.226V169.895a4.172,4.172,0,0,0-.676-2.786,3.914,3.914,0,0,0-2.786-.715l-4.217-.036v15.47H838.38V162Z"
          transform="translate(-582.932 -134.792)" fill="url(#linear-gradient-5)"/>
    <path id="Path_23787" data-name="Path 23787"
          d="M905.188,147.186V140h5.226v7.186h5.533v3.952h-5.527v8.019q-.039,2.969,1.356,3.462a11.964,11.964,0,0,0,3.838.49h.327v3.92h-4.769a5.745,5.745,0,0,1-4.478-1.656,6.484,6.484,0,0,1-1.506-4.517v-9.727H901.5v-3.943Z"
          transform="translate(-625.434 -119.978)" fill="url(#linear-gradient-6)"/>
    <path id="Path_23788" data-name="Path 23788" d="M955.2,144.916V140h5.488v4.929Zm0,22.1V147.186h5.488v19.827Z"
          transform="translate(-661.593 -119.978)" fill="url(#linear-gradient-7)"/>
    <path id="Path_23789" data-name="Path 23789"
          d="M999.9,177.59v4.217h-7.121a18.228,18.228,0,0,1-3.972-.431,7.332,7.332,0,0,1-3.482-1.9,8.918,8.918,0,0,1-2-2.92,11.169,11.169,0,0,1-.941-4.534,11.762,11.762,0,0,1,.941-4.743,8.972,8.972,0,0,1,2-2.9,7.45,7.45,0,0,1,3.482-1.917,17.483,17.483,0,0,1,3.972-.49h7.114v4.338H993a9.421,9.421,0,0,0-1.47.1,3.788,3.788,0,0,0-1.352.49,4.05,4.05,0,0,0-1.865,2.218,8.685,8.685,0,0,0-.47,2.9,8.416,8.416,0,0,0,.526,2.8,4.06,4.06,0,0,0,1.81,2.126,3.786,3.786,0,0,0,1.352.49,11.31,11.31,0,0,0,1.47.15C993.155,177.593,999.9,177.59,999.9,177.59Z"
          transform="translate(-679.9 -134.771)" fill="url(#linear-gradient-8)"/>
    <g id="Group_14210" data-name="Group 14210" transform="translate(85.679 57.898)">
        <path id="Path_23791" data-name="Path 23791"
              d="M318.17,251.836h3.453a4.047,4.047,0,0,1,1.552.255,2.635,2.635,0,0,1,.964.653,2.159,2.159,0,0,1,.493.889,3.267,3.267,0,0,1,0,1.9,2.178,2.178,0,0,1-.493.888,2.635,2.635,0,0,1-.964.653,3.986,3.986,0,0,1-1.552.258H319.5v4.325H318.17Zm1.329,4.325h1.748a4.681,4.681,0,0,0,.771-.062,2.078,2.078,0,0,0,.679-.229,1.239,1.239,0,0,0,.477-.477,1.89,1.89,0,0,0,0-1.633,1.226,1.226,0,0,0-.477-.48,2.169,2.169,0,0,0-.679-.229,5.083,5.083,0,0,0-.771-.062H319.5Z"
              transform="translate(-318.17 -251.587)" fill="#9a9fbf"/>
        <path id="Path_23792" data-name="Path 23792"
              d="M346.885,251.84h1.205l4.2,9.8h-1.555l-.98-2.427h-4.678l-.98,2.427H342.55Zm2.384,6.226-1.829-4.508h-.029l-1.855,4.508Z"
              transform="translate(-334.586 -251.592)" fill="#9a9fbf"/>
        <path id="Path_23793" data-name="Path 23793"
              d="M382.48,251.836h3.453a4.048,4.048,0,0,1,1.552.255,2.635,2.635,0,0,1,.964.653,2.158,2.158,0,0,1,.493.889,3.521,3.521,0,0,1,.14.947,2.531,2.531,0,0,1-.167.908,2.561,2.561,0,0,1-.48.79,2.781,2.781,0,0,1-.761.6,2.673,2.673,0,0,1-1.006.3l2.786,4.478h-1.663l-2.5-4.325h-1.486v4.325H382.48Zm1.329,4.325h1.748a4.682,4.682,0,0,0,.771-.062,2.079,2.079,0,0,0,.679-.229,1.262,1.262,0,0,0,.477-.477,1.891,1.891,0,0,0,0-1.633,1.247,1.247,0,0,0-.477-.48,2.17,2.17,0,0,0-.679-.229,5.083,5.083,0,0,0-.771-.062h-1.748Z"
              transform="translate(-361.473 -251.587)" fill="#9a9fbf"/>
        <path id="Path_23794" data-name="Path 23794" d="M413.612,253.088H410.45V251.84h7.657v1.248h-3.162v8.568h-1.333Z"
              transform="translate(-380.307 -251.592)" fill="#9a9fbf"/>
        <path id="Path_23795" data-name="Path 23795"
              d="M465.659,261.4a5.335,5.335,0,0,1-2.068-.4,4.811,4.811,0,0,1-1.614-1.091,4.972,4.972,0,0,1-1.055-1.633,5.626,5.626,0,0,1,0-4.076,4.989,4.989,0,0,1,1.055-1.633,4.81,4.81,0,0,1,1.614-1.091,5.6,5.6,0,0,1,4.132,0,4.856,4.856,0,0,1,1.633,1.091,5.031,5.031,0,0,1,1.052,1.633,5.627,5.627,0,0,1,0,4.076,5.012,5.012,0,0,1-1.052,1.633A4.857,4.857,0,0,1,467.723,261,5.317,5.317,0,0,1,465.659,261.4Zm0-1.248a3.593,3.593,0,0,0,3.436-2.394,4.483,4.483,0,0,0,0-3.035,3.684,3.684,0,0,0-6.128-1.241,3.686,3.686,0,0,0-.748,1.241,4.483,4.483,0,0,0,0,3.035,3.687,3.687,0,0,0,.748,1.241A3.593,3.593,0,0,0,465.659,260.148Z"
              transform="translate(-414.035 -251.08)" fill="#9a9fbf"/>
        <path id="Path_23796" data-name="Path 23796"
              d="M503.92,251.84h6.17v1.248h-4.838v3.077h4.508v1.248h-4.508v4.246H503.92Z"
              transform="translate(-443.245 -251.592)" fill="#9a9fbf"/>
        <path id="Path_23797" data-name="Path 23797"
              d="M552.19,251.84h1.983l3.119,7.431h.062l3.093-7.431h1.983v9.8H561.1v-8.068h-.026l-3.315,8.068h-.888l-3.312-8.068h-.029v8.068H552.2Z"
              transform="translate(-475.749 -251.592)" fill="#9a9fbf"/>
        <path id="Path_23798" data-name="Path 23798"
              d="M597.922,251.84v6.017a3.8,3.8,0,0,0,.124.951,2.762,2.762,0,0,0,.415.908,2.264,2.264,0,0,0,.764.679,2.7,2.7,0,0,0,2.329,0,2.25,2.25,0,0,0,.761-.679,2.762,2.762,0,0,0,.418-.908,3.951,3.951,0,0,0,.124-.951V251.84h1.33v6.226a3.985,3.985,0,0,1-.291,1.558,3.687,3.687,0,0,1-.8,1.215,3.631,3.631,0,0,1-1.205.79,4.179,4.179,0,0,1-3,0,3.593,3.593,0,0,1-1.208-.79,3.793,3.793,0,0,1-.8-1.215,4.053,4.053,0,0,1-.291-1.558V251.84Z"
              transform="translate(-505.645 -251.592)" fill="#9a9fbf"/>
        <path id="Path_23799" data-name="Path 23799" d="M633.22,251.84h1.333v8.568h4.5v1.248H633.22Z"
              transform="translate(-530.31 -251.592)" fill="#9a9fbf"/>
        <path id="Path_23800" data-name="Path 23800" d="M657.312,253.088H654.15V251.84H661.8v1.248h-3.162v8.568h-1.329Z"
              transform="translate(-544.404 -251.592)" fill="#9a9fbf"/>
        <path id="Path_23801" data-name="Path 23801" d="M688.11,251.84h1.329v9.8H688.11Z"
              transform="translate(-567.271 -251.592)" fill="#9a9fbf"/>
        <path id="Path_23802" data-name="Path 23802"
              d="M706.11,251.84h3.41a4.431,4.431,0,0,1,1.186.15,2.91,2.91,0,0,1,.944.451,2.141,2.141,0,0,1,.63.758,2.469,2.469,0,0,1,.229,1.088,1.984,1.984,0,0,1-.474,1.378,2.737,2.737,0,0,1-1.218.784v.029a2.114,2.114,0,0,1,.833.229,2.289,2.289,0,0,1,.67.526,2.553,2.553,0,0,1,.617,1.686,2.425,2.425,0,0,1-.271,1.173,2.5,2.5,0,0,1-.742.853,3.51,3.51,0,0,1-1.094.526,4.8,4.8,0,0,1-1.346.18H706.11Zm1.329,4.077h1.816a3.084,3.084,0,0,0,.709-.078,1.537,1.537,0,0,0,.581-.255,1.335,1.335,0,0,0,.4-.457,1.439,1.439,0,0,0,.147-.679A1.395,1.395,0,0,0,709.533,253h-2.094Zm0,4.573h1.96a3.983,3.983,0,0,0,.673-.065,1.96,1.96,0,0,0,.686-.248,1.7,1.7,0,0,0,.539-.506,1.433,1.433,0,0,0,.222-.846,1.55,1.55,0,0,0-.568-1.307,2.466,2.466,0,0,0-1.539-.438h-1.96Z"
              transform="translate(-579.391 -251.591)" fill="#9a9fbf"/>
        <path id="Path_23803" data-name="Path 23803"
              d="M739.568,251.84h1.205l4.2,9.8h-1.555l-.98-2.427h-4.661l-.98,2.427H735.25Zm2.385,6.226-1.829-4.508h-.029l-1.855,4.508Z"
              transform="translate(-599.013 -251.592)" fill="#9a9fbf"/>
        <path id="Path_23804" data-name="Path 23804"
              d="M775.123,251.84h1.748l5.4,8.068h.029V251.84h1.329v9.8H781.94l-5.462-8.068h-.029v8.068H775.12Z"
              transform="translate(-625.86 -251.592)" fill="#9a9fbf"/>
        <path id="Path_23805" data-name="Path 23805"
              d="M815.12,251.84h1.329v4.246h.111l4.341-4.246h1.859l-4.74,4.534,5.06,5.282h-1.94l-4.573-4.9h-.111v4.9h-1.329Z"
              transform="translate(-652.794 -251.592)" fill="#9a9fbf"/>
        <path id="Path_23806" data-name="Path 23806"
              d="M873.956,255.664v4.841a4.558,4.558,0,0,1-.82.389,9.208,9.208,0,0,1-.951.3,8.509,8.509,0,0,1-.98.173,9.15,9.15,0,0,1-.951.056,5.613,5.613,0,0,1-2.224-.418,4.769,4.769,0,0,1-2.679-2.767,5.545,5.545,0,0,1-.353-1.976,5.388,5.388,0,0,1,.382-2.038,5.03,5.03,0,0,1,1.052-1.633,4.851,4.851,0,0,1,1.617-1.091,5.32,5.32,0,0,1,2.068-.4,6.143,6.143,0,0,1,2.218.327,4.107,4.107,0,0,1,1.441.937l-.944,1.013a3.5,3.5,0,0,0-1.287-.813,4.519,4.519,0,0,0-1.427-.229,3.593,3.593,0,0,0-2.692,1.153,3.639,3.639,0,0,0-.748,1.241,4.318,4.318,0,0,0-.265,1.516,4.091,4.091,0,0,0,.291,1.548,3.921,3.921,0,0,0,.8,1.241,3.763,3.763,0,0,0,2.718,1.124,6.517,6.517,0,0,0,1.339-.134,3.735,3.735,0,0,0,1.075-.382v-2.731h-2.176v-1.248Z"
              transform="translate(-686.381 -251.091)" fill="#9a9fbf"/>
        <path id="Path_23807" data-name="Path 23807"
              d="M906,251.836h3.453a4.065,4.065,0,0,1,1.555.255,2.693,2.693,0,0,1,.98.653,2.19,2.19,0,0,1,.49.889,3.393,3.393,0,0,1,.141.947,2.533,2.533,0,0,1-.167.908,2.56,2.56,0,0,1-.48.79,2.737,2.737,0,0,1-.761.6,2.673,2.673,0,0,1-1.006.3l2.786,4.478h-1.666l-2.5-4.325h-1.483v4.325H906Zm1.333,4.325h1.748a4.645,4.645,0,0,0,.768-.062,2.079,2.079,0,0,0,.679-.229,1.269,1.269,0,0,0,.48-.477,1.925,1.925,0,0,0,0-1.633,1.254,1.254,0,0,0-.48-.48,2.17,2.17,0,0,0-.679-.229,5.037,5.037,0,0,0-.768-.062h-1.748Z"
              transform="translate(-713.989 -251.587)" fill="#9a9fbf"/>
        <path id="Path_23808" data-name="Path 23808"
              d="M941.455,261.4a5.317,5.317,0,0,1-2.064-.4,4.79,4.79,0,0,1-1.617-1.091,5.024,5.024,0,0,1-1.055-1.633,5.671,5.671,0,0,1,0-4.076,5.041,5.041,0,0,1,1.055-1.633,4.791,4.791,0,0,1,1.617-1.091,5.6,5.6,0,0,1,4.132,0,4.809,4.809,0,0,1,1.614,1.091,5.042,5.042,0,0,1,1.055,1.633,5.671,5.671,0,0,1,0,4.076,5.024,5.024,0,0,1-1.055,1.633A4.81,4.81,0,0,1,943.523,261,5.347,5.347,0,0,1,941.455,261.4Zm0-1.248a3.593,3.593,0,0,0,2.691-1.153,3.687,3.687,0,0,0,.748-1.241,4.483,4.483,0,0,0,0-3.035,3.649,3.649,0,0,0-5.937-1.432q-.1.092-.191.191a3.641,3.641,0,0,0-.751,1.241,4.539,4.539,0,0,0,0,3.035,3.641,3.641,0,0,0,.751,1.241A3.567,3.567,0,0,0,941.455,260.148Z"
              transform="translate(-734.419 -251.08)" fill="#9a9fbf"/>
        <path id="Path_23809" data-name="Path 23809"
              d="M980.469,251.84v6.017a3.807,3.807,0,0,0,.127.951,2.694,2.694,0,0,0,.415.908,2.259,2.259,0,0,0,.761.67,2.7,2.7,0,0,0,2.329,0,2.265,2.265,0,0,0,.764-.679,2.759,2.759,0,0,0,.415-.908,3.791,3.791,0,0,0,.124-.951V251.84h1.333v6.226a4.053,4.053,0,0,1-.291,1.558,3.79,3.79,0,0,1-.8,1.215,3.594,3.594,0,0,1-1.208.79,4.179,4.179,0,0,1-3,0,3.63,3.63,0,0,1-1.205-.79,3.688,3.688,0,0,1-.8-1.215,4.052,4.052,0,0,1-.291-1.558V251.84Z"
              transform="translate(-763.238 -251.592)" fill="#9a9fbf"/>
        <path id="Path_23810" data-name="Path 23810"
              d="M1015.77,251.836h3.453a4.047,4.047,0,0,1,1.552.255,2.637,2.637,0,0,1,.98.653,2.162,2.162,0,0,1,.493.889,3.266,3.266,0,0,1,0,1.9,2.177,2.177,0,0,1-.493.888,2.633,2.633,0,0,1-.98.653,3.985,3.985,0,0,1-1.552.258h-2.12v4.325h-1.333Zm1.333,4.325h1.744a4.647,4.647,0,0,0,.771-.062,2.078,2.078,0,0,0,.68-.229,1.238,1.238,0,0,0,.477-.477,1.89,1.89,0,0,0,0-1.633,1.225,1.225,0,0,0-.477-.48,2.17,2.17,0,0,0-.68-.229,5.04,5.04,0,0,0-.771-.062H1017.1Z"
              transform="translate(-787.903 -251.587)" fill="#9a9fbf"/>
    </g>
    <path id="Path_23811" data-name="Path 23811"
          d="M56.347,139.86h8.365l6.9,20.761L78.5,139.86h8.326v27.053H81.25l.461-21.062-6.941,21.062H68.743l-7.157-21.287.562,21.291H56.34Z"
          transform="translate(-56.34 -119.883)" fill="url(#linear-gradient-9)"/>
    <path id="Path_23812" data-name="Path 23812"
          d="M154.18,139.86h6.366l6.67,10.325L174,139.86h6.595l-10.436,15.107v11.945h-5.69V154.967Z"
          transform="translate(-122.221 -119.883)" fill="url(#linear-gradient-10)"/>
    <rect id="Rectangle_12627" data-name="Rectangle 12627" width="2.16" height="74.228" transform="translate(69.769)"
          fill="url(#linear-gradient-11)"/>
    <g id="Group_14212" data-name="Group 14212" transform="translate(-232.961 -119.838)">
        <path id="Path_23813" data-name="Path 23813"
              d="M429.053,146.288a7.182,7.182,0,0,0-1.734,4.647l15.728-.039v4.7h-15.77a11.659,11.659,0,0,0,.326,2.747,5.508,5.508,0,0,0,1.3,2.408,3.613,3.613,0,0,0,2.053,1.261,11.952,11.952,0,0,0,2.425.244h.326l9.331-.039v4.7h-9.595a22.984,22.984,0,0,1-4.419-.414,9.2,9.2,0,0,1-4.009-1.916,9.776,9.776,0,0,1-3.158-4.5,18.364,18.364,0,0,1-.978-5.436c-.023-.4-.029-.792-.016-1.167s.029-.753.055-1.128q.414-6.4,3.481-9.409c2.043-2,5.11-3.047,9.2-3.047h9.451v4.7h-9.34A6.2,6.2,0,0,0,429.053,146.288Z"
              transform="translate(-68.906 -0.034)" fill="url(#linear-gradient-12)"/>
        <path id="Path_23814" data-name="Path 23814"
              d="M502.212,153.419,492.8,166.924h6.7l6.019-9.406,5.68,9.406h6.811l-9.331-13.883,8.692-13.131h-6.547l-5.54,8.542-5.573-8.542H493.1Z"
              transform="translate(-117.401 -0.034)" fill="url(#linear-gradient-13)"/>
        <path id="Path_23815" data-name="Path 23815"
              d="M327.006,139.86l6.886,20.744,6.89-20.744h8.32v27.03h-5.576l.45-21.043L337.05,166.89h-6.023l-7.154-21.268.564,21.268h-5.8V139.86Z"
              transform="translate(0 0)" fill="url(#linear-gradient-13)"/>
    </g>
</svg>
